<?xml version="1.0" encoding="utf-8"?>
<!-- Generator: Adobe Illustrator 28.2.0, SVG Export Plug-In . SVG Version: 6.00 Build 0)  -->
<svg version="1.1" id="_2023" xmlns="http://www.w3.org/2000/svg" xmlns:xlink="http://www.w3.org/1999/xlink" x="0px" y="0px"
	 viewBox="0 0 708.7 175.8" style="enable-background:new 0 0 708.7 175.8;" xml:space="preserve">
<style type="text/css">
	.st0{fill:#FFFFFF;}
	.st1{fill:#FEBE10;}
</style>
<g>
	<g>
		<g>
			<polygon class="st0" points="526.9,94.7 515.3,65.6 504.2,65.6 521.1,107.6 510.4,131 521.7,131 551.4,65.6 540.1,65.6 			"/>
			<path class="st0" d="M473,111.3c4.9,0,9.4-1.5,13.2-4.1v2c0,6.9-5.6,12.5-12.5,12.5c-5.4,0-10.6-2-14.6-5.7l-6.9,7.5
				c5.9,5.4,13.5,8.4,21.5,8.4c12.5,0,22.7-10.2,22.7-22.7V65.6h-10.2v3c-3.8-2.6-8.3-4.1-13.2-4.1c-12.9,0-23.4,10.5-23.4,23.4
				S460.1,111.3,473,111.3z M473,74.8c7.3,0,13.2,5.9,13.2,13.2c0,7.3-5.9,13.2-13.2,13.2s-13.2-5.9-13.2-13.2
				C459.8,80.7,465.7,74.8,473,74.8z"/>
			<rect x="376.8" y="42.4" class="st0" width="10.2" height="69.3"/>
			<path class="st0" d="M344,64.5c-13.4,0-24.3,10.9-24.3,24.3S330.6,113,344,113s24.3-10.9,24.3-24.3S357.3,64.5,344,64.5z
				 M344,102.8c-7.7,0-14-6.3-14-14s6.3-14,14-14c7.7,0,14,6.3,14,14S351.7,102.8,344,102.8z"/>
			<path class="st0" d="M420.1,64.5c-13.4,0-24.3,10.9-24.3,24.3s10.9,24.3,24.3,24.3s24.3-10.9,24.3-24.3S433.4,64.5,420.1,64.5z
				 M420.1,102.8c-7.7,0-14-6.3-14-14s6.3-14,14-14c7.7,0,14,6.3,14,14S427.8,102.8,420.1,102.8z"/>
			<path class="st0" d="M292.1,64.9c-4.5,0-8.7,1.3-12.2,3.6v-3h-10.2v21.9v9.3v15.1h10.2V96.7v-9.3c0-6.7,5.5-12.2,12.2-12.2
				c5.2,0,9.5,4.3,9.5,9.5v27.1h10.2V84.7C311.9,73.8,303,64.9,292.1,64.9z"/>
			<path class="st0" d="M250.9,84.7v27.1h10.2V84.7c0-10.9-8.9-19.8-19.8-19.8c-4.5,0-8.7,1.3-12.2,3.6V42.4h-10.2v45v9.3v15.1h10.2
				V96.7v-9.3c0-6.7,5.5-12.2,12.2-12.2C246.6,75.2,250.9,79.5,250.9,84.7z"/>
			<path class="st0" d="M211,104.9l-7.6-6.8c-2.7,3-6.5,4.7-10.5,4.7c-7.7,0-14-6.3-14-14s6.3-14,14-14c4,0,7.8,1.7,10.5,4.7
				l7.6-6.8c-4.6-5.2-11.2-8.1-18.1-8.1c-13.4,0-24.3,10.9-24.3,24.3s10.9,24.3,24.3,24.3C199.8,113,206.4,110.1,211,104.9z"/>
			<path class="st0" d="M140.8,102.8c-5.7-0.2-10.6-3.9-12.6-8.9h35.2v-5.1c0-14.1-9.3-24.3-22.2-24.3c-6.6,0-12.7,2.6-17.3,7.2
				c-4.6,4.7-7.1,10.9-7,17.4c0.2,13,10.5,23.5,23.5,23.8c0.3,0,0.5,0,0.8,0c7.1,0,13.9-3,18.9-8.3l-7.5-7
				C149.5,101.1,145.2,102.9,140.8,102.8z M131.2,79c2.7-2.7,6.2-4.2,10-4.2c6.2,0,9.8,4,11.3,8.9h-24.3
				C128.9,81.9,129.9,80.3,131.2,79z"/>
			<g>
				<rect x="96.9" y="65.6" class="st1" width="13.9" height="13.2"/>
			</g>
			<g>
				<path class="st0" d="M111.5,111.7c-15.3,0-27.8-12.5-27.8-27.8V50.2h13.2v33.7c0,8,6.5,14.5,14.5,14.5V111.7z"/>
			</g>
		</g>
		<path class="st1" d="M573.7,64.5c-13.4,0-24.3,10.9-24.3,24.3s10.9,24.3,24.3,24.3s24.3-10.9,24.3-24.3S587.1,64.5,573.7,64.5z
			 M573.7,102.8c-7.7,0-14-6.3-14-14s6.3-14,14-14s14,6.3,14,14S581.4,102.8,573.7,102.8z"/>
		<path class="st1" d="M624.1,64.9c-4.5,0-8.7,1.3-12.2,3.6v-3h-10.2v21.9v9.3v15.1h10.2V96.7v-9.3c0-6.7,5.5-12.2,12.2-12.2
			c5.2,0,9.5,4.3,9.5,9.5v27.1h10.2V84.7C643.8,73.8,635,64.9,624.1,64.9z"/>
		<path class="st1" d="M671.4,102.8c-5.7-0.2-10.6-3.9-12.6-8.9H694v-5.1c0-14.1-9.3-24.3-22.2-24.3c-6.6,0-12.7,2.6-17.3,7.2
			c-4.6,4.7-7.1,10.9-7,17.4c0.2,13,10.5,23.5,23.5,23.8c0.3,0,0.5,0,0.8,0c7.1,0,13.9-3,18.9-8.3l-7.5-7
			C680.1,101.1,675.8,102.9,671.4,102.8z M661.8,79c2.7-2.7,6.2-4.2,10-4.2c6.2,0,9.8,4,11.3,8.9h-24.3
			C659.4,81.9,660.5,80.3,661.8,79z"/>
	</g>
	<g>
		<g>
			<rect x="35.7" y="78" class="st1" width="18.6" height="46.1"/>
		</g>
		<g>
			<path class="st0" d="M14,78V59.4c11.9,0,21.7-9.7,21.7-21.7h18.6C54.2,60,36.2,78,14,78z"/>
		</g>
	</g>
</g>
</svg>
